<?xml version="1.0" standalone="no"?>
<!DOCTYPE svg PUBLIC "-//W3C//DTD SVG 20010904//EN"
 "http://www.w3.org/TR/2001/REC-SVG-20010904/DTD/svg10.dtd">
<svg version="1.0" xmlns="http://www.w3.org/2000/svg"
 width="300.000000pt" height="300.000000pt" viewBox="0 0 300.000000 300.000000"
 preserveAspectRatio="xMidYMid meet">
<metadata>
Created by potrace 1.16, written by Peter Selinger 2001-2019
</metadata>
<g transform="translate(0.000000,300.000000) scale(0.100000,-0.100000)"
fill="#000000" stroke="none">
<path d="M1437 2412 c-101 -214 -103 -346 -8 -454 32 -37 100 -83 231 -159 93
-53 158 -120 201 -207 32 -63 34 -73 34 -172 0 -93 -4 -112 -27 -162 -15 -32
-23 -58 -18 -58 4 0 30 17 57 38 219 174 257 418 107 691 -57 104 -113 168
-301 349 -98 94 -187 185 -198 202 -11 16 -23 30 -26 30 -3 0 -27 -44 -52 -98z"/>
<path d="M1154 2058 c-235 -203 -322 -452 -224 -637 19 -34 51 -77 72 -96 39
-33 134 -87 176 -100 21 -6 21 -4 -8 42 -18 29 -33 69 -36 99 -18 148 88 341
219 398 50 23 51 23 27 36 -41 22 -121 103 -143 145 -14 27 -21 59 -21 98 0
31 -3 57 -7 57 -3 0 -28 -19 -55 -42z"/>
<path d="M1382 1219 c-18 -6 -62 -30 -98 -54 -73 -50 -80 -52 -112 -29 -31 21
-39 11 -18 -22 49 -74 227 -72 332 4 l39 28 40 -27 c112 -75 279 -79 329 -8
22 33 20 43 -6 25 -34 -24 -50 -20 -123 30 -85 58 -124 68 -190 49 -44 -13
-57 -12 -99 0 -55 17 -49 17 -94 4z"/>
<path d="M775 990 c-81 -21 -142 -67 -178 -134 -30 -58 -30 -174 0 -232 30
-56 93 -111 145 -125 110 -29 249 5 543 134 94 41 324 137 513 213 188 76 342
142 342 146 0 10 -1326 8 -1365 -2z"/>
<path d="M1980 842 c-168 -65 -314 -122 -325 -126 -16 -6 -2 -17 80 -58 102
-52 319 -146 388 -168 22 -7 70 -11 112 -8 62 3 80 8 117 33 88 63 132 184
108 300 -10 49 -20 68 -55 103 -35 35 -49 42 -81 42 -25 0 -147 -42 -344 -118z"/>
</g>
</svg>
