<svg id="a15731c2-5ed4-409b-a7c9-bb3c5f711d85" data-name="Layer 1" xmlns="http://www.w3.org/2000/svg" xmlns:xlink="http://www.w3.org/1999/xlink" width="772" height="756.26592" viewBox="0 0 772 756.26592"><defs><linearGradient id="a026aeeb-1716-483c-ac60-35ab5f709f89" x1="818.69499" y1="798.03702" x2="818.69499" y2="789.28702" gradientTransform="translate(-540.54499)" gradientUnits="userSpaceOnUse"><stop offset="0" stop-color="gray" stop-opacity="0.25"/><stop offset="0.53514" stop-color="gray" stop-opacity="0.12"/><stop offset="1" stop-color="gray" stop-opacity="0.1"/></linearGradient></defs><title>click here</title><polygon points="772 170.07 772 224.67 721.49 202.5 700.99 193.5 685.04 186.5 603.04 150.5 587.09 143.5 566.59 134.5 271.6 5 395.98 5 772 170.07" fill="#f2f2f2"/><circle cx="663" cy="66" r="66" fill="#3876b7"/><path d="M912,445.86719a12,12,0,1,1,12-12A12.01343,12.01343,0,0,1,912,445.86719Zm0-22a10,10,0,1,0,10,10A10.01146,10.01146,0,0,0,912,423.86719Z" transform="translate(-214 -71.86704)" fill="#3f3d56"/><path d="M240,280.86719H214v-26h26Zm-24-2h22v-22H216Z" transform="translate(-214 -71.86704)" fill="#3f3d56"/><path d="M627,101.86719H601v-26h26Zm-24-2h22v-22H603Z" transform="translate(-214 -71.86704)" fill="#3f3d56"/><rect x="118.5" y="162.62024" width="186" height="151" fill="#3876b7"/><rect x="118.5" y="359.62024" width="515" height="16" fill="#f2f2f2"/><path d="M506.5,377.4873h-188v-153h188Zm-186-2h184v-149h-184Z" transform="translate(-214 -71.86704)" fill="#3f3d56"/><rect x="378.5" y="204.12024" width="180" height="16" fill="#3876b7"/><rect x="378.5" y="247.12024" width="255" height="16" fill="#3876b7" opacity="0.3"/><path d="M760.5,283.9873h-182v-18h182Zm-180-2h178v-14h-178Z" transform="translate(-214 -71.86704)" fill="#3f3d56"/><path d="M835.5,326.9873h-257v-18h257Zm-255-2h253v-14h-253Z" transform="translate(-214 -71.86704)" fill="#3f3d56"/><path d="M835.5,439.4873h-517v-18h517Zm-515-2h513v-14h-513Z" transform="translate(-214 -71.86704)" fill="#3f3d56"/><rect x="118.5" y="409.62024" width="515" height="16" fill="#f2f2f2"/><path d="M835.5,489.4873h-517v-18h517Zm-515-2h513v-14h-513Z" transform="translate(-214 -71.86704)" fill="#3f3d56"/><rect x="118.5" y="459.62024" width="515" height="16" fill="#f2f2f2"/><path d="M835.5,539.4873h-517v-18h517Zm-515-2h513v-14h-513Z" transform="translate(-214 -71.86704)" fill="#3f3d56"/><rect x="118.5" y="509.62024" width="515" height="16" fill="#f2f2f2"/><path d="M835.5,589.4873h-517v-18h517Zm-515-2h513v-14h-513Z" transform="translate(-214 -71.86704)" fill="#3f3d56"/><rect x="118.5" y="559.62024" width="515" height="16" fill="#f2f2f2"/><path d="M835.5,639.4873h-517v-18h517Zm-515-2h513v-14h-513Z" transform="translate(-214 -71.86704)" fill="#3f3d56"/><rect x="118.5" y="609.62024" width="515" height="16" fill="#f2f2f2"/><path d="M835.5,689.4873h-517v-18h517Zm-515-2h513v-14h-513Z" transform="translate(-214 -71.86704)" fill="#3f3d56"/><path d="M878.5,786H289V136.48682H878.5ZM291,784H876.5V138.48682H291Z" transform="translate(-214 -71.86704)" fill="#3f3d56"/><path d="M276.4,797.987a.467.467,0,0,0-.1.05c1.19-2.57,2.3-5.17,3.31-7.81.12-.31.23-.63.35-.94-.01.08-.01.16-.02.25-.03.5-.07,1-.11,1.51-.06.79-.11005,1.59-.12,2.39-.01.25-.01.49-.01.74a14.62975,14.62975,0,0,0,.3,2.9h-.04c-.25.02-.48.03-.72.07a9.783,9.783,0,0,0-2.73.78A.59118.59118,0,0,0,276.4,797.987Z" transform="translate(-214 -71.86704)" fill="url(#a026aeeb-1716-483c-ac60-35ab5f709f89)"/><path d="M295.3349,405.20783c.107,4.17578,1.52192,8.22151,1.74374,12.38963-12.2979.61182-24.42747-5.35354-36.603-3.52568,3.40328-2.2026,5.22358-6.17187,6.29422-10.08a41.80174,41.80174,0,0,0,1.20077-15.487,6.81912,6.81912,0,0,0-.15292-.85656c-.45129-2.042-1.62145-4.93287-1.30786-6.539.413-2.12609,2.41677-1.70547,4.22167-1.58312a158.14328,158.14328,0,0,1,16.41247,2.11848c1.41476.24474,15.1963,3.6863,15.40281,3.32683a64.85651,64.85651,0,0,0-5.9654,12.29019A23.96064,23.96064,0,0,0,295.3349,405.20783Z" transform="translate(-214 -71.86704)" fill="#a0616a"/><path d="M416.952,392.30581a17.97934,17.97934,0,0,1-3.75515,3.78573c-.93312.76479-1.88911,1.54484-2.89093,2.24849a12.39718,12.39718,0,0,1-6.14886,2.50083c-2.92921.19885-9.147-1.52193-10.96717-4.03042a7.27035,7.27035,0,0,1-1.04776-4.19869,19.315,19.315,0,0,1,1.00948-5.87364,32.736,32.736,0,0,1,4.74176-8.58093c2.1184-2.94443,4.474-5.843,7.625-7.625a29.578,29.578,0,0,1,3.2427-1.49131c1.912-.7801,3.8164-1.56786,5.72837-2.34791a2.76435,2.76435,0,0,1,1.04-.27531c1.53723.01526,1.82029,2.36317.94833,3.63275-1.74375,2.55438-5.667,3.26563-6.76829,6.16422a4.39408,4.39408,0,0,1,4.08386,3.1662,2.23769,2.23769,0,0,0,.55073,1.27723c.50478.40532,1.29254.17589,1.86613.48182,1.017.543.5736,2.05729.68059,3.20448a14.99277,14.99277,0,0,0,1.04776,2.88323A6.12631,6.12631,0,0,1,416.952,392.30581Z" transform="translate(-214 -71.86704)" fill="#a0616a"/><path d="M247.43242,810.97654c.94675-.94594,2.49321-.78518,3.81512-.57613a141.54223,141.54223,0,0,0,21.45078,1.73514c.89941-4.39192-1.71148-8.66065-2.55261-13.0641a11.78627,11.78627,0,0,0-.84963-3.30321c-1.01161-1.941-3.29368-2.82882-5.43538-3.28058-3.86565-.81539-9.90838-2.2541-12.06738,1.65424C249.20281,798.8314,248.374,805.75763,247.43242,810.97654Z" transform="translate(-214 -71.86704)" fill="#65617d"/><path d="M326.02587,794.387c-2.91381,1.98849-6.53125,2.608-10.034,3.05917-3.51046.44359-7.11259.78776-10.2865,2.34791-2.73791,1.3537-5.0476,3.57156-7.94619,4.54286a16.55529,16.55529,0,0,1-8.25212.13c-3.258-.61182-6.73011-1.79724-8.48907-4.61166-1.56786-2.50088-1.39963-5.67478-1.18546-8.61921q.37851-4.99023.74182-9.99582a4.76,4.76,0,0,1,.61953-2.41672c2.35552-3.43391,8.0838,1.43781,11.15062,1.43015,4.8564-.00765,10.07233-2.63854,13.575-5.85832A4.11986,4.11986,0,0,1,306.975,773.6c1.38432-.61948,2.76854.52771,3.99985,1.52958.13761.11474.27531.22943.413.33651,2.83735,2.24849,6.646,2.70735,10.14879,3.61745,3.51037.9101,7.26552,2.74562,8.35146,6.20249a5.27463,5.27463,0,0,1,.16823.66536C330.69117,789.13292,328.75623,792.52094,326.02587,794.387Z" transform="translate(-214 -71.86704)" fill="#3f3d56"/><path d="M326.02587,794.387c-2.91381,1.98849-6.53125,2.608-10.034,3.05917-3.51046.44359-7.11259.78776-10.2865,2.34791-2.73791,1.3537-5.0476,3.57156-7.94619,4.54286a16.55529,16.55529,0,0,1-8.25212.13c-3.258-.61182-6.73011-1.79724-8.48907-4.61166-1.56786-2.50088-1.39963-5.67478-1.18546-8.61921q.37851-4.99023.74182-9.99582a4.76,4.76,0,0,1,.61953-2.41672c2.35552-3.43391,8.0838,1.43781,11.15062,1.43015,4.8564-.00765,10.07233-2.63854,13.575-5.85832A4.11986,4.11986,0,0,1,306.975,773.6c1.38432-.61948,2.76854.52771,3.99985,1.52958.13761.11474.27531.22943.413.33651,2.83735,2.24849,6.646,2.70735,10.14879,3.61745,3.51037.9101,7.26552,2.74562,8.35146,6.20249a5.27463,5.27463,0,0,1,.16823.66536C330.69117,789.13292,328.75623,792.52094,326.02587,794.387Z" transform="translate(-214 -71.86704)" fill="#2f2e41"/><path d="M326.02587,795.50636c-2.91381,1.98848-6.53125,2.608-10.034,3.05916-3.51046.44359-7.11259.78776-10.2865,2.34791-2.73791,1.3537-5.0476,3.57156-7.94619,4.54286a16.55541,16.55541,0,0,1-8.25212.13,13.62478,13.62478,0,0,1-8.48907-5.731c-1.56786-2.50088-1.39963-5.67478-1.18546-8.61921q.37851-4.99023.74182-9.99582a4.76,4.76,0,0,1,.61953-2.41672c2.35552-3.43391,8.0838,1.43781,11.15062,1.43015,4.8564-.00765,10.07233-2.63854,13.575-5.85832A4.11986,4.11986,0,0,1,306.975,773.6c1.38432-.61948,2.76854.52771,3.99985,1.52958a28.73076,28.73076,0,0,1-3.41094,7.05135,14.67489,14.67489,0,0,1-10.69942,6.69192c-2.17208.16063-4.39755-.26765-6.50073.29063-2.09552.55833-4.05342,2.70739-3.3116,4.74937.72651,1.98844,3.29629,2.42437,5.41478,2.53911,2.9673.16062,6.01125.30593,8.82572-.61948,1.72078-.57359,3.2962-1.52193,4.97114-2.21791,7.12016-2.95208,16.11411-1.30016,21.9954-6.28656a13.015,13.015,0,0,1,1.79714-1.37662C331.59612,789.17485,328.75623,793.64026,326.02587,795.50636Z" transform="translate(-214 -71.86704)" fill="#e8eaf2"/><path d="M326.02587,795.50636c-2.91381,1.98848-6.53125,2.608-10.034,3.05916-3.51046.44359-7.11259.78776-10.2865,2.34791-2.73791,1.3537-5.0476,3.57156-7.94619,4.54286a16.55541,16.55541,0,0,1-8.25212.13,13.62478,13.62478,0,0,1-8.48907-5.731c-1.56786-2.50088-1.39963-5.67478-1.18546-8.61921q.37851-4.99023.74182-9.99582a4.76,4.76,0,0,1,.61953-2.41672c2.35552-3.43391,8.0838,1.43781,11.15062,1.43015,4.8564-.00765,10.07233-2.63854,13.575-5.85832A4.11986,4.11986,0,0,1,306.975,773.6c1.38432-.61948,2.76854.52771,3.99985,1.52958a28.73076,28.73076,0,0,1-3.41094,7.05135,14.67489,14.67489,0,0,1-10.69942,6.69192c-2.17208.16063-4.39755-.26765-6.50073.29063-2.09552.55833-4.05342,2.70739-3.3116,4.74937.72651,1.98844,3.29629,2.42437,5.41478,2.53911,2.9673.16062,6.01125.30593,8.82572-.61948,1.72078-.57359,3.2962-1.52193,4.97114-2.21791,7.12016-2.95208,16.11411-1.30016,21.9954-6.28656a13.015,13.015,0,0,1,1.79714-1.37662C331.59612,789.17485,328.75623,793.64026,326.02587,795.50636Z" transform="translate(-214 -71.86704)" opacity="0.05"/><path d="M248.764,577.62208a43.783,43.783,0,0,0,6.00086,32.30554c1.66828,2.58492,3.62326,5.01155,4.87743,7.82083a35.54763,35.54763,0,0,1,1.90347,6.19771l5.40525,22.37335c1.45922,6.04,2.92905,12.19684,2.49077,18.39513-.30539,4.31886-1.394,9.175,1.26772,12.58979a9.27854,9.27854,0,0,1,1.6081,2.2064,5.58447,5.58447,0,0,1,.02651,2.90737c-2.73469,16.24376-4.76269,33.22569.17695,48.94,4.47709,14.24277,4.73264,30.02445,8.53949,44.46082.47139,1.78763,1.01049,3.672,2.36461,4.93067a7.75079,7.75079,0,0,0,3.54539,1.68476c5.60984,1.33477,11.53392-.229,16.766-2.65342,3.67711-1.70388,7.635-4.69183,7.32087-8.73233-.14944-1.92205-1.27217-3.60662-2.03419-5.37748-1.49456-3.47323-1.61464-7.35311-2.01791-11.11268-1.01263-9.44028-3.92293-18.55549-6.12256-27.7916s-3.6939-18.8873-1.83357-28.19769a246.66239,246.66239,0,0,1,18.14088-55.80776,6.72983,6.72983,0,0,1,1.66159-2.49909,17.18127,17.18127,0,0,0,2.35187-1.6054,7.09664,7.09664,0,0,0,1.07592-2.92564c.81816-2.9468,3.2485-5.12091,4.87771-7.70909,4.11376-6.53514,2.81012-14.912,2.65772-22.6326-.14819-7.508.93294-15.0847-.29788-22.49257s-5.47462-14.98013-12.6163-17.30129c-3.53765-1.14979-7.36223-.889-11.064-.5226C286.22528,567.01431,267.16891,570.57673,248.764,577.62208Z" transform="translate(-214 -71.86704)" fill="#2f2e41"/><path d="M248.764,577.62208a43.783,43.783,0,0,0,6.00086,32.30554c1.66828,2.58492,3.62326,5.01155,4.87743,7.82083a35.54763,35.54763,0,0,1,1.90347,6.19771l5.40525,22.37335c1.45922,6.04,2.92905,12.19684,2.49077,18.39513-.30539,4.31886-1.394,9.175,1.26772,12.58979a9.27854,9.27854,0,0,1,1.6081,2.2064,5.58447,5.58447,0,0,1,.02651,2.90737c-2.73469,16.24376-4.76269,33.22569.17695,48.94,4.47709,14.24277,4.73264,30.02445,8.53949,44.46082.47139,1.78763,1.01049,3.672,2.36461,4.93067a7.75079,7.75079,0,0,0,3.54539,1.68476c5.60984,1.33477,11.53392-.229,16.766-2.65342,3.67711-1.70388,7.635-4.69183,7.32087-8.73233-.14944-1.92205-1.27217-3.60662-2.03419-5.37748-1.49456-3.47323-1.61464-7.35311-2.01791-11.11268-1.01263-9.44028-3.92293-18.55549-6.12256-27.7916s-3.6939-18.8873-1.83357-28.19769a246.66239,246.66239,0,0,1,18.14088-55.80776,6.72983,6.72983,0,0,1,1.66159-2.49909,17.18127,17.18127,0,0,0,2.35187-1.6054,7.09664,7.09664,0,0,0,1.07592-2.92564c.81816-2.9468,3.2485-5.12091,4.87771-7.70909,4.11376-6.53514,2.81012-14.912,2.65772-22.6326-.14819-7.508.93294-15.0847-.29788-22.49257s-5.47462-14.98013-12.6163-17.30129c-3.53765-1.14979-7.36223-.889-11.064-.5226C286.22528,567.01431,267.16891,570.57673,248.764,577.62208Z" transform="translate(-214 -71.86704)" opacity="0.1"/><path d="M328.64158,624.71051a46.89143,46.89143,0,0,1-.98661,8.68036q-5.1853,29.08122-11.05128,58.04c-.34412,1.6749-.68068,3.34979-1.13188,4.99411a40.50013,40.50013,0,0,1-7.48724,14.72984c-16.29774,20.31284-17.705,49.81084-26.546,74.30712-.59647,1.65958-1.193,3.31916-1.82786,4.95583a123.7726,123.7726,0,0,1-5.453,12.16785,3.47771,3.47771,0,0,1-1.12422,1.45307,3.33384,3.33384,0,0,1-1.77427.34417,51.7929,51.7929,0,0,1-22.9667-5.22354,4.75579,4.75579,0,0,1-2.43964-2.02667,4.90137,4.90137,0,0,1-.26009-2.33265c.24478-4.8564.543-9.88874,2.86031-14.15624a30.2069,30.2069,0,0,1,5.65947-6.8602c.68833-15.24228,2.195-30.51513,5.54474-45.398,1.72078-7.60968,3.84682-15.30348,8.26734-21.73535,3.258-4.74937,7.931-9.43754,7.35738-15.16582-.25244-2.51614-1.30786-5.65181.74182-7.12786.89475-.65,2.21782-.73421,2.822-1.65958a3.14867,3.14867,0,0,0,.3977-1.4225,35.12321,35.12321,0,0,0-.72651-11.75488,61.99751,61.99751,0,0,1-1.7514-7.66317c-.2601-2.61562.18354-5.44531,1.92729-7.40318.107-5.23119-.03828-10.66118.0688-15.88472a29.45678,29.45678,0,0,0-.73426-8.87156c-.39761-1.369-1.00183-2.67677-1.30776-4.07635-1.0936-5.02468,1.63675-11.04358-1.61361-15.02816-1.35369-1.65193-3.44156-2.47791-5.21593-3.671-3.541-2.36322-5.866-6.23306-7.15852-10.2941a56.81621,56.81621,0,0,1-2.02662-12.60374,12.97228,12.97228,0,0,1-.03062-2.72265,4.99033,4.99033,0,0,1,.36708-1.36131c1.00958-2.27145,3.72462-3.151,6.14129-3.73218a198.87436,198.87436,0,0,1,46.897-5.48359c5.84292-3.97687,9.13156-2.55437,11.60948,1.65963a43.54647,43.54647,0,0,1,3.30395,8.06854c1.13187,3.41859,1.20068,22.55368,2.302,25.98758C332.72545,610.906,328.588,620.02234,328.64158,624.71051Z" transform="translate(-214 -71.86704)" fill="#2f2e41"/><path d="M222.99765,450.58148c-.43418,3.01081,1.01349,5.96967,1.17356,9.0074.13985,2.65412-.705,5.24647-1.18834,7.85995-1.88648,10.19972,1.73794,20.53142,5.4265,30.22615a15.5756,15.5756,0,0,1,1.28824,4.97107c.09868,3.1643-1.72382,6.06351-2.22293,9.18977-1.0488,6.56915,3.79679,12.74856,3.89721,19.40015.04624,3.06249-.91819,6.17948-.152,9.14494.51132,1.97905,1.74667,3.67978,2.62326,5.52631,1.55325,3.27189,1.9701,6.98414,3.4527,10.28864,2.67939,5.972,8.4356,9.87141,13.91368,13.45391,3.11657-1.039,6.486-2.2726,8.19693-5.07715a12.5793,12.5793,0,0,0,1.43079-4.45235c1.18447-6.80315,1.14342-13.7525,1.09891-20.65786a127.38472,127.38472,0,0,0-.94514-17.78193c-1.1066-7.50268-3.54081-14.73668-5.28718-22.11672-2.20256-9.30784-3.33121-18.92471-6.76167-27.85327-3.01458-7.84613-7.71016-14.889-12.65255-21.63488-1.88582-2.57394-3.37454-6.25318-7.03463-5.65883A7.67411,7.67411,0,0,0,222.99765,450.58148Z" transform="translate(-214 -71.86704)" fill="#3f3d56"/><path d="M222.99765,450.58148c-.43418,3.01081,1.01349,5.96967,1.17356,9.0074.13985,2.65412-.705,5.24647-1.18834,7.85995-1.88648,10.19972,1.73794,20.53142,5.4265,30.22615a15.5756,15.5756,0,0,1,1.28824,4.97107c.09868,3.1643-1.72382,6.06351-2.22293,9.18977-1.0488,6.56915,3.79679,12.74856,3.89721,19.40015.04624,3.06249-.91819,6.17948-.152,9.14494.51132,1.97905,1.74667,3.67978,2.62326,5.52631,1.55325,3.27189,1.9701,6.98414,3.4527,10.28864,2.67939,5.972,8.4356,9.87141,13.91368,13.45391,3.11657-1.039,6.486-2.2726,8.19693-5.07715a12.5793,12.5793,0,0,0,1.43079-4.45235c1.18447-6.80315,1.14342-13.7525,1.09891-20.65786a127.38472,127.38472,0,0,0-.94514-17.78193c-1.1066-7.50268-3.54081-14.73668-5.28718-22.11672-2.20256-9.30784-3.33121-18.92471-6.76167-27.85327-3.01458-7.84613-7.71016-14.889-12.65255-21.63488-1.88582-2.57394-3.37454-6.25318-7.03463-5.65883A7.67411,7.67411,0,0,0,222.99765,450.58148Z" transform="translate(-214 -71.86704)" opacity="0.05"/><circle cx="75.80822" cy="297.04487" r="28.39964" fill="#a0616a"/><path d="M306.33543,415.40231c-1.23808,1.43264-2.89946,3.01139-4.73575,2.54949a6.46986,6.46986,0,0,1-1.84292-.98643c-3.2738-2.11-7.29215-2.60512-11.14357-3.18533a164.42788,164.42788,0,0,1-22.94933-5.15949,23.40862,23.40862,0,0,0-6.78793-1.38017c-4.81342.02487-9.0793,3.22453-12.09574,6.97564s-5.15349,8.14043-8.11345,11.93627c-2.10893,2.70449-4.62037,5.08762-6.58985,7.8953-4.97214,7.08821-6.0408,16.33583-4.75717,24.89837s4.70457,16.63623,8.09463,24.60318a85.49278,85.49278,0,0,0,6.60913,13.32566c-1.14362,6.50577-.54,13.9458,2.55353,19.78214,1.0075,1.90077,2.24216,3.75431,2.57526,5.87963a14.71694,14.71694,0,0,1-.17845,4.312l-1.44542,10.28183c-.44013,3.13081-.88044,6.26271-1.45045,9.3725-1.04324,5.69154-2.45858,11.86861.17731,17.01974,3.15661,6.16873-.1588,14.07425.6706,20.95389a105.40668,105.40668,0,0,1,27.67394-6.57491c6.10285-.59825,12.31961-.67384,18.20755-2.387,3.67722-1.06989,7.16442-2.76367,10.89791-3.61669a50.24283,50.24283,0,0,1,9.18924-.93811c6.80521-.27451,13.65853-.54666,20.395.45648.5455.08123,1.20995.12507,1.53644-.31941a1.43731,1.43731,0,0,0,.20465-.80294,13.58022,13.58022,0,0,0-1.74144-7.2299c-.85878-1.51567-2.052-2.99828-2.01894-4.74a7.20158,7.20158,0,0,1,.58993-2.35357l2.98486-7.96034c2.51976-6.72,1.32064-14.52564,2.62927-21.58218A126.71284,126.71284,0,0,0,337.436,509.7322c.24229-4.78861.09172-9.9743-2.79771-13.80061a15.86364,15.86364,0,0,1-2.18321-3.036,9.2162,9.2162,0,0,1-.51989-3.63069q-.09659-14.37362.78861-28.73145c-2.51969-4.52539-5.14673-9.15351-7.66642-13.67891-2.93241-5.26665-5.90567-10.6417-7.08963-16.55228-.78369-3.9123-.75648-7.94112-1.31709-11.89156a5.19286,5.19286,0,0,0-1.00419-2.777c-.96225-1.09-2.58937-1.246-4.04264-1.20061A17.894,17.894,0,0,0,306.33543,415.40231Z" transform="translate(-214 -71.86704)" fill="#3f3d56"/><path d="M315.82077,459.75945c1.7286,2.1551,3.53021,4.37128,5.98227,5.644,2.8212,1.46435,6.14437,1.49774,9.32224,1.43013a222.75524,222.75524,0,0,0,38.95562-4.2793,24.32815,24.32815,0,0,0,4.29039-1.14992,22.595,22.595,0,0,0,4.33615-2.70453c4.2252-3.03757,8.51045-6.13193,11.72316-10.22554A34.37929,34.37929,0,0,0,397.38,431.431c3.056-2.81565,4.6788-6.81776,6.2086-10.68129a16.3109,16.3109,0,0,0,1.41531-5.18766c.08212-1.837-1.13515-3.76275-.79845-5.5705a14.72216,14.72216,0,0,1,4.50638-8.10647,2.95594,2.95594,0,0,0,1.0718-1.42437,2.2957,2.2957,0,0,0-.25518-1.38826c-1.30776-2.91286-4.298-4.791-7.39835-5.55437a31.75246,31.75246,0,0,0-9.53247-.37846,22.28,22.28,0,0,0-3.12224.82926l-2.22085,5.84811a7.564,7.564,0,0,1-1.45109,2.66767,13.6187,13.6187,0,0,1-1.57673,1.23287,9.01873,9.01873,0,0,0-3.12508,7.88166,8.46937,8.46937,0,0,0-5.00822,10.45532,9.981,9.981,0,0,0-7.32285,6.44684,4.82035,4.82035,0,0,1-.95643,2.00649,3.89445,3.89445,0,0,1-2.557.78579c-2.50956.15522-4.70395,2.13169-6.97825,1.05952a14.18719,14.18719,0,0,0-8.28847-1.15845,6.23923,6.23923,0,0,1-1.76863.15686,4.67029,4.67029,0,0,1-1.45051-.50545,11.60807,11.60807,0,0,0-3.28988-1.29433,3.08,3.08,0,0,0-3.12113,1.20561c-.79639-.87332-1.271-1.99173-1.99663-2.92466a3.20148,3.20148,0,0,0-3.02778-1.44485c.756-.6736-.01784-2.01422-1.00035-2.25922a12.81752,12.81752,0,0,0-3.02074.10949c-2.6266-.01385-4.64193-2.39876-7.1933-3.023-2.34512-.57379-5.47078.11046-6.6729-1.98327-.4262-.74229-.50963-1.749-1.235-2.20347a2.38326,2.38326,0,0,0-1.58445-.18362,15.48847,15.48847,0,0,0-4.79167,1.45429c-2.45919,9.61913-1.169,19.60875.70481,29.35884A25.90086,25.90086,0,0,0,315.82077,459.75945Z" transform="translate(-214 -71.86704)" fill="#3f3d56"/><path d="M301.54087,408.275c-3.04677-1.89657-6.63352-2.70086-10.164-3.34561a21.41285,21.41285,0,0,0-6.4671-.4651c-1.99921.24948-3.9181,1.02136-5.9297,1.13346-2.82345.15734-5.53041-.98791-8.25794-1.73441s-5.87817-1.03169-8.1745.61862a3.5305,3.5305,0,0,1-1.77929.945,3.11283,3.11283,0,0,1-1.83914-.902,10.4779,10.4779,0,0,0-13.05855.68824c-5.207,4.88241-4.61771,14.42217-10.72,18.12529-1.68206,1.02074-3.83241,1.5607-4.81443,3.26566a12.06272,12.06272,0,0,1-.83023,1.57027,4.25319,4.25319,0,0,1-1.4671,1.04539,28.50878,28.50878,0,0,0-5.02994,2.8915,7.19368,7.19368,0,0,0-2.895,4.85284,9.143,9.143,0,0,0,.889,4.08126,38.29418,38.29418,0,0,0,37.21425,23.79652,5.89059,5.89059,0,0,0,3.89831-1.21668,7.357,7.357,0,0,0,1.36643-2.25052c2.86872-6.01515,8.25682-10.45557,11.67819-16.17447,2.0391-3.4084,3.348-7.22054,5.4707-10.57753,3.21782-5.089,8.11145-8.84842,12.90133-12.49657,2.70108-2.05725,5.70817-4.21618,9.10153-4.07208,3.02424.1288,5.224.29114,4.11527-3.418A11.883,11.883,0,0,0,301.54087,408.275Z" transform="translate(-214 -71.86704)" fill="#3f3d56"/><path d="M301.54087,408.275c-3.04677-1.89657-6.63352-2.70086-10.164-3.34561a21.41285,21.41285,0,0,0-6.4671-.4651c-1.99921.24948-3.9181,1.02136-5.9297,1.13346-2.82345.15734-5.53041-.98791-8.25794-1.73441s-5.87817-1.03169-8.1745.61862a3.5305,3.5305,0,0,1-1.77929.945,3.11283,3.11283,0,0,1-1.83914-.902,10.4779,10.4779,0,0,0-13.05855.68824c-5.207,4.88241-4.61771,14.42217-10.72,18.12529-1.68206,1.02074-3.83241,1.5607-4.81443,3.26566a12.06272,12.06272,0,0,1-.83023,1.57027,4.25319,4.25319,0,0,1-1.4671,1.04539,28.50878,28.50878,0,0,0-5.02994,2.8915,7.19368,7.19368,0,0,0-2.895,4.85284,9.143,9.143,0,0,0,.889,4.08126,38.29418,38.29418,0,0,0,37.21425,23.79652,5.89059,5.89059,0,0,0,3.89831-1.21668,7.357,7.357,0,0,0,1.36643-2.25052c2.86872-6.01515,8.25682-10.45557,11.67819-16.17447,2.0391-3.4084,3.348-7.22054,5.4707-10.57753,3.21782-5.089,8.11145-8.84842,12.90133-12.49657,2.70108-2.05725,5.70817-4.21618,9.10153-4.07208,3.02424.1288,5.224.29114,4.11527-3.418A11.883,11.883,0,0,0,301.54087,408.275Z" transform="translate(-214 -71.86704)" opacity="0.05"/><path d="M316.32072,819.88519c-2.05725,1.91963-4.88694,2.76088-7.6326,3.35739a137.57107,137.57107,0,0,1-18.99748,2.34792c-2.0649.153-4.13745.31359-6.20235.47417-6.05718.4589-12.122.92541-18.20206.94838a125.52955,125.52955,0,0,1-22.38545-1.935,1.89922,1.89922,0,0,1-2.04193-2.27141,108.44627,108.44627,0,0,1,2.75313-22.46956c.70374-3.02859,6.13364,3.76276,6.37843,4.04573,1.50661,1.71312,2.64614,2.50088,4.93286,2.62323,6.24838.34416,13.24623-3.45687,18.20972-6.83724a23.30653,23.30653,0,0,1,3.37266-2.08786,9.92943,9.92943,0,0,1,2.73036-.7801,16.48464,16.48464,0,0,1,9.29223,1.8814c3.73218,1.85078,7.00551,4.51224,10.69942,6.41661a30.07414,30.07414,0,0,0,9.59041,3.03619c3.38051.46652,7.41853.68834,9.15462,3.61745a.02812.02812,0,0,1,.00766.023C319.40285,814.69988,318.3703,817.97321,316.32072,819.88519Z" transform="translate(-214 -71.86704)" fill="#2f2e41"/><path d="M316.32072,821.00451c-2.05725,1.91963-4.88694,2.76088-7.6326,3.3574a137.57258,137.57258,0,0,1-18.99748,2.34791c-2.0649.153-4.13745.31359-6.20235.47417-6.05718.4589-12.122.92541-18.20206.94838a125.52862,125.52862,0,0,1-22.38545-1.935,2.46979,2.46979,0,0,1-1.77437-.85656,9.92238,9.92238,0,0,1-1.38688-2.53417c.13-7.55613,2.17464-15.10462,3.87245-22.46956.70374-3.02859,6.13364,3.76276,6.37843,4.04573,1.50661,1.71312,2.64614,2.50088,4.93286,2.62323,6.24838.34416,13.24623-3.45687,18.20972-6.83724a23.30653,23.30653,0,0,1,3.37266-2.08786,9.92943,9.92943,0,0,1,2.73036-.7801c-.80307,4.497-7.25021,9.927-10.57712,11.57894-6.73011,3.34214-14.72979,1.6749-22.24,2.065a3.1017,3.1017,0,0,0-1.57551.38239c-.9024.59652-.956,1.87375-.92537,2.95209.06115,1.78963.29053,3.8928,1.84308,4.80286a5.31605,5.31605,0,0,0,2.49323.5201,352.604,352.604,0,0,0,55.455-1.9426,30.49142,30.49142,0,0,0,9.03223-2.0114,23.37792,23.37792,0,0,0,5.2388-3.37271C320.34446,814.133,318.3703,819.09253,316.32072,821.00451Z" transform="translate(-214 -71.86704)" fill="#e8eaf2"/><path d="M300.85667,368.60495c-.10709,2.93677,1.89666,8.63447-3.59449,7.04369-3.27332-.94833-4.19869-4.82583-8.35155-3.96161-4.19113.87953-5.10884,5.98067-6.516,9.33046a17.85462,17.85462,0,0,1-12.9403,10.45468,7.7906,7.7906,0,0,1-3.56386-.00761c-2.67677-.76479-4.20635-3.52572-5.3-6.08775a47.76188,47.76188,0,0,1-2.34787-6.68427,28.22674,28.22674,0,0,1-.849-4.90233v-.00766a21.8063,21.8063,0,0,1-.01531-3.388c.49723-6.67661,4.29822-12.76436,9.16228-17.36837s10.77588-7.93088,16.61123-11.21186a24.25424,24.25424,0,0,1,6.126-2.73031,20.61564,20.61564,0,0,1,6.47019-.26766,22.58452,22.58452,0,0,1,8.22916,1.93494,11.59038,11.59038,0,0,1,2.8985,2.03433,8.71359,8.71359,0,0,1,2.50844,4.191c1.05551,4.31344-1.69781,8.19859-3.93094,11.60953C303.46454,361.61475,301.00193,364.82688,300.85667,368.60495Z" transform="translate(-214 -71.86704)" fill="#2f2e41"/><path d="M306.79145,351.986a25.03134,25.03134,0,0,1-1.6825,2.40145,28.40816,28.40816,0,0,1-3.8852,4.02281,32.32587,32.32587,0,0,1-2.62318,2.05729,41.28273,41.28273,0,0,1-5.3,3.16625c-5.36885,2.70734-11.18124,4.4052-16.96311,6.08009q-5.667,1.65195-11.34182,3.29625c-3.954,2.99031-17.20014,12.8026-19.42571,11.5789-2.62318-1.44542,11.75155-11.62175,11.75155-11.62175l.661.50171c-2.10318-1.32308-3.20443-4.3899-3.6786-7.04375-.84125-4.74932-1.239-9.68223-.11474-14.37806,1.12422-4.68817,3.94635-9.15452,8.24447-11.34947,1.90432-.97895,4.214-1.64432,5.59067-3.15093a3.96914,3.96914,0,0,0,.543-.73422,2.41346,2.41346,0,0,0,.21416-.39005,5.29349,5.29349,0,0,1,.60413-1.17011c.78775-.9101,2.21791-.63479,3.411-.48948.13.01527.25234.03058.38239.03824a6.01423,6.01423,0,0,0,.64231.03057c4.25994.09177,8.38983-2.27906,12.70326-2.27906,4.72636-.00766,8.74916,2.73031,12.90967,4.5964.84126.38239,1.63667.72656,2.38615,1.07833,3.00558,1.39958,5.26933,2.89094,6.50838,6.86786C309.04755,347.42023,308.06094,349.92111,306.79145,351.986Z" transform="translate(-214 -71.86704)" fill="#3f3d56"/><path d="M257.60492,372.85474a5.2478,5.2478,0,0,0,1.962.73042,6.32546,6.32546,0,0,0,5.23383-.78428Z" transform="translate(-214 -71.86704)" opacity="0.1"/></svg>